<mxfile host="app.diagrams.net" modified="2021-09-03T08:53:15.231Z" agent="5.0 (Windows NT 10.0; Win64; x64) AppleWebKit/537.36 (KHTML, like Gecko) Chrome/93.0.4577.63 Safari/537.36" etag="bKCdd7t5rmVBr4lqtfLN" version="14.9.3" type="github">
  <diagram id="jl7gAwfvsnYzkAaO_TCi" name="Page-1">
    <mxGraphModel dx="1022" dy="468" grid="0" gridSize="10" guides="1" tooltips="1" connect="1" arrows="1" fold="1" page="1" pageScale="1" pageWidth="850" pageHeight="1100" math="0" shadow="0">
      <root>
        <mxCell id="0" />
        <mxCell id="1" parent="0" />
      </root>
    </mxGraphModel>
  </diagram>
</mxfile>
